<svg width="73" height="65" viewBox="0 0 73 65" fill="none" xmlns="http://www.w3.org/2000/svg">
<path d="M72.3384 23.1965V13.6666C72.3355 12.8249 71.957 12.0183 71.2856 11.4232C70.6141 10.828 69.7042 10.4925 68.7546 10.49L54.4193 10.49V5.19559C54.4193 4.91475 54.2934 4.64543 54.0694 4.44685C53.8454 4.24827 53.5415 4.13671 53.2247 4.13671L49.6409 4.13671V2.01896C49.6409 1.73813 49.515 1.4688 49.291 1.27022C49.067 1.07164 48.7631 0.960083 48.4463 0.960083L24.5542 0.960083C24.2374 0.960083 23.9335 1.07164 23.7095 1.27022C23.4855 1.4688 23.3596 1.73813 23.3596 2.01896V4.13671H19.7758C19.459 4.13671 19.1551 4.24827 18.9311 4.44685C18.707 4.64543 18.5812 4.91475 18.5812 5.19559V10.49H4.24592C3.29631 10.4925 2.3864 10.828 1.71492 11.4232C1.04344 12.0183 0.664945 12.8249 0.662109 13.6666L0.662109 23.1965C0.662109 23.4773 0.787969 23.7466 1.012 23.9452C1.23603 24.1438 1.53988 24.2553 1.85671 24.2553L1.85671 34.8441C1.53988 34.8441 1.23603 34.9557 1.012 35.1542C0.787969 35.3528 0.662109 35.6222 0.662109 35.903L0.662109 57.0805C0.662109 57.3613 0.787969 57.6307 1.012 57.8292C1.23603 58.0278 1.53988 58.1394 1.85671 58.1394L1.85671 60.2571C1.8586 60.8183 2.11093 61.356 2.55859 61.7527C3.00624 62.1495 3.61285 62.3732 4.24592 62.3749H34.111V63.4337C34.111 63.7146 34.2369 63.9839 34.4609 64.1825C34.685 64.3811 34.9888 64.4926 35.3056 64.4926H71.1438C71.4606 64.4926 71.7645 64.3811 71.9885 64.1825C72.2125 63.9839 72.3384 63.7146 72.3384 63.4337V32.7264C72.336 32.4456 72.212 32.1765 71.9919 31.9746L71.1438 31.2333V24.2553C71.4606 24.2553 71.7645 24.1438 71.9885 23.9452C72.2125 23.7466 72.3384 23.4773 72.3384 23.1965ZM25.7488 3.07783L47.2517 3.07783V7.31334L25.7488 7.31334V3.07783ZM20.9704 6.25446H23.3596V8.37221C23.3596 8.65304 23.4855 8.92237 23.7095 9.12095C23.9335 9.31953 24.2374 9.43109 24.5542 9.43109H48.4463C48.7631 9.43109 49.067 9.31953 49.291 9.12095C49.515 8.92237 49.6409 8.65304 49.6409 8.37221V6.25446H52.0301V10.49H20.9704V6.25446ZM34.111 60.2571H4.24592V58.1394H34.111V60.2571ZM3.05132 56.0216L3.05132 36.9619H16.407C16.655 37.5789 17.1114 38.1133 17.7142 38.4922C18.3169 38.8711 19.0368 39.0762 19.7758 39.0796H22.165C22.904 39.0762 23.6238 38.8711 24.2266 38.4922C24.8294 38.1133 25.2858 37.5789 25.5338 36.9619H38.8895V56.0216H3.05132ZM13.8028 28.4909H20.9704C21.2872 28.4909 21.5911 28.3793 21.8151 28.1807C22.0391 27.9821 22.165 27.7128 22.165 27.432V24.2553L50.8355 24.2553V25.3142L35.3056 25.3142C34.9888 25.3142 34.685 25.4258 34.4609 25.6244C34.2369 25.8229 34.111 26.0923 34.111 26.3731V34.8441H25.7488V31.6675C25.7488 31.3866 25.6229 31.1173 25.3989 30.9187C25.1749 30.7202 24.871 30.6086 24.5542 30.6086H17.3866C17.0697 30.6086 16.7659 30.7202 16.5419 30.9187C16.3178 31.1173 16.192 31.3866 16.192 31.6675V34.8441H4.24592L4.24592 24.2553H12.6082V27.432C12.6082 27.7128 12.734 27.9821 12.958 28.1807C13.1821 28.3793 13.4859 28.4909 13.8028 28.4909ZM14.9974 26.3731V22.1376H19.7758V26.3731H14.9974ZM23.3596 32.7264V35.903C23.3596 36.1838 23.2337 36.4531 23.0097 36.6517C22.7857 36.8503 22.4818 36.9619 22.165 36.9619H19.7758C19.459 36.9619 19.1551 36.8503 18.9311 36.6517C18.707 36.4531 18.5812 36.1838 18.5812 35.903V32.7264H23.3596ZM69.9492 62.3749H36.5002V58.1394H40.0841C40.4009 58.1394 40.7047 58.0278 40.9288 57.8292C41.1528 57.6307 41.2787 57.3613 41.2787 57.0805V54.9627H66.3653V52.845H41.2787V49.6684H66.3653V47.5506H41.2787V44.374H66.3653V42.2562H41.2787V39.0796H66.3653V36.9619H41.2787V35.903C41.2787 35.6222 41.1528 35.3528 40.9288 35.1542C40.7047 34.9557 40.4009 34.8441 40.0841 34.8441H36.5002V27.432L62.7815 27.432V32.7264C62.7815 33.0072 62.9074 33.2765 63.1314 33.4751C63.3555 33.6737 63.6593 33.7852 63.9761 33.7852H69.9492V62.3749ZM53.2247 25.3142V22.1376H58.0031V25.3142H53.2247ZM64.8243 25.6213C64.5965 25.4263 64.2928 25.3163 63.9761 25.3142H60.3923V24.2553H68.7546V29.1156L64.8243 25.6213ZM68.2648 31.6675H65.1707V28.925L68.2648 31.6675ZM69.9492 22.1376H60.3923V21.0787C60.3923 20.7979 60.2665 20.5286 60.0424 20.33C59.8184 20.1314 59.5146 20.0198 59.1977 20.0198H52.0301C51.7133 20.0198 51.4094 20.1314 51.1854 20.33C50.9614 20.5286 50.8355 20.7979 50.8355 21.0787V22.1376L22.165 22.1376V21.0787C22.165 20.7979 22.0391 20.5286 21.8151 20.33C21.5911 20.1314 21.2872 20.0198 20.9704 20.0198H13.8028C13.4859 20.0198 13.1821 20.1314 12.958 20.33C12.734 20.5286 12.6082 20.7979 12.6082 21.0787V22.1376H3.05132L3.05132 13.6666C3.05132 13.3858 3.17718 13.1164 3.40121 12.9179C3.62524 12.7193 3.92909 12.6077 4.24592 12.6077L68.7546 12.6077C69.0714 12.6077 69.3752 12.7193 69.5993 12.9179C69.8233 13.1164 69.9492 13.3858 69.9492 13.6666V22.1376Z" fill="white"/>
<path d="M52.0305 31.6674H40.0845V33.7852H52.0305V31.6674Z" fill="white"/>
<path d="M66.3658 58.1395H40.0845V60.2572H66.3658V58.1395Z" fill="white"/>
<path d="M19.7769 40.1384H5.44167C5.12485 40.1384 4.82099 40.25 4.59696 40.4486C4.37293 40.6471 4.24707 40.9165 4.24707 41.1973L4.24707 53.9038C4.24707 54.1846 4.37293 54.454 4.59696 54.6526C4.82099 54.8511 5.12485 54.9627 5.44167 54.9627H19.7769C20.0938 54.9627 20.3976 54.8511 20.6216 54.6526C20.8457 54.454 20.9715 54.1846 20.9715 53.9038V41.1973C20.9715 40.9165 20.8457 40.6471 20.6216 40.4486C20.3976 40.25 20.0938 40.1384 19.7769 40.1384ZM14.9985 52.8449H10.2201V51.7861C10.2201 51.2244 10.4718 50.6857 10.9199 50.2886C11.3679 49.8914 11.9756 49.6683 12.6093 49.6683C13.243 49.6683 13.8507 49.8914 14.2987 50.2886C14.7468 50.6857 14.9985 51.2244 14.9985 51.7861V52.8449ZM11.4147 46.4917C11.4147 46.2823 11.4848 46.0775 11.616 45.9034C11.7473 45.7293 11.9339 45.5936 12.1521 45.5134C12.3704 45.4333 12.6106 45.4123 12.8424 45.4532C13.0741 45.494 13.2869 45.5949 13.454 45.7429C13.6211 45.891 13.7349 46.0797 13.781 46.2851C13.827 46.4905 13.8034 46.7034 13.713 46.8969C13.6226 47.0904 13.4694 47.2558 13.273 47.3721C13.0765 47.4885 12.8456 47.5506 12.6093 47.5506C12.2925 47.5506 11.9886 47.439 11.7646 47.2404C11.5406 47.0418 11.4147 46.7725 11.4147 46.4917ZM18.5823 52.8449H17.3877V51.7861C17.3863 51.1265 17.2104 50.4765 16.8743 49.888C16.5383 49.2996 16.0513 48.7891 15.4525 48.3977C15.9288 47.8517 16.189 47.1819 16.1931 46.4917C16.1931 45.6492 15.8155 44.8412 15.1434 44.2455C14.4713 43.6497 13.5598 43.3151 12.6093 43.3151C11.6588 43.3151 10.7473 43.6497 10.0752 44.2455C9.40307 44.8412 9.02549 45.6492 9.02549 46.4917C9.02956 47.1819 9.28984 47.8517 9.76614 48.3977C9.16732 48.7891 8.68034 49.2996 8.34425 49.888C8.00817 50.4765 7.83235 51.1265 7.83088 51.7861V52.8449H6.63628V42.2562H18.5823V52.8449Z" fill="white"/>
<path d="M36.501 43.3151H23.3604V45.4328H36.501V43.3151Z" fill="white"/>
<path d="M29.3334 47.5505H23.3604V49.6683H29.3334V47.5505Z" fill="white"/>
<path d="M36.4996 47.5507H31.7212V49.6684H36.4996V47.5507Z" fill="white"/>
<path d="M22.1641 33.7852H19.7749V35.9029H22.1641V33.7852Z" fill="white"/>
</svg>
