<svg width="66" height="67" viewBox="0 0 66 67" fill="none" xmlns="http://www.w3.org/2000/svg">
<path d="M66 4.35619V2.42339C65.9993 1.82555 65.7614 1.2524 65.3385 0.829665C64.9156 0.406931 64.3422 0.169139 63.7441 0.168457H2.25586C1.65778 0.169139 1.08439 0.406931 0.66148 0.829665C0.238572 1.2524 0.000682353 1.82555 0 2.42339L0 4.35619C0.000771413 4.92048 0.212935 5.46403 0.594689 5.87973C0.976443 6.29543 1.5001 6.55315 2.0625 6.60211V17.574C1.50022 17.6226 0.976566 17.8801 0.594786 18.2956C0.213006 18.7111 0.000798441 19.2544 0 19.8186L0 21.7514C0.000771413 22.3157 0.212935 22.8592 0.594689 23.2749C0.976443 23.6906 1.5001 23.9484 2.0625 23.9973V34.9692C1.50022 35.0178 0.976566 35.2753 0.594786 35.6908C0.213006 36.1063 0.000798441 36.6497 0 37.2138L0 39.1466C0.000771413 39.7109 0.212935 40.2544 0.594689 40.6701C0.976443 41.0858 1.5001 41.3436 2.0625 41.3925V64.2356H0.966797C0.710386 64.2356 0.464478 64.3375 0.283168 64.5187C0.101859 64.6999 0 64.9458 0 65.2021C0 65.4584 0.101859 65.7042 0.283168 65.8854C0.464478 66.0666 0.710386 66.1685 0.966797 66.1685H65.0332C65.2896 66.1685 65.5355 66.0666 65.7168 65.8854C65.8981 65.7042 66 65.4584 66 65.2021C66 64.9458 65.8981 64.6999 65.7168 64.5187C65.5355 64.3375 65.2896 64.2356 65.0332 64.2356H63.9375V41.3925C64.4999 41.3436 65.0236 41.0858 65.4053 40.6701C65.7871 40.2544 65.9992 39.7109 66 39.1466V37.2138C65.9992 36.6497 65.787 36.1063 65.4052 35.6908C65.0234 35.2753 64.4998 35.0178 63.9375 34.9692V23.9973C64.4999 23.9484 65.0236 23.6906 65.4053 23.2749C65.7871 22.8592 65.9992 22.3157 66 21.7514V19.8186C65.9992 19.2544 65.787 18.7111 65.4052 18.2956C65.0234 17.8801 64.4998 17.6226 63.9375 17.574V6.60211C64.4999 6.55315 65.0236 6.29543 65.4053 5.87973C65.7871 5.46403 65.9992 4.92048 66 4.35619ZM32.0332 64.2356H22.752V51.072H32.0332V64.2356ZM43.248 64.2356H33.9668V51.072H43.248V64.2356ZM45.1172 49.1392H20.8828C20.8658 49.1389 20.8496 49.132 20.8376 49.12C20.8256 49.1079 20.8187 49.0917 20.8184 49.0748V47.2708C20.8184 47.2537 20.8252 47.2373 20.8372 47.2253C20.8493 47.2132 20.8657 47.2064 20.8828 47.2064H45.1172C45.1343 47.2064 45.1507 47.2132 45.1628 47.2253C45.1749 47.2373 45.1816 47.2537 45.1816 47.2708V49.0748C45.1813 49.0917 45.1744 49.1079 45.1624 49.12C45.1504 49.132 45.1342 49.1389 45.1172 49.1392ZM62.0039 64.2356H45.1829V51.0681C45.7008 51.0511 46.1919 50.8337 46.5526 50.4619C46.9133 50.09 47.1155 49.5927 47.1165 49.0748V47.2708C47.1158 46.7413 46.9051 46.2337 46.5306 45.8593C46.156 45.4849 45.6482 45.2743 45.1185 45.2736H20.8828C20.3531 45.2743 19.8453 45.4849 19.4707 45.8593C19.0962 46.2337 18.8854 46.7413 18.8848 47.2708V49.0748C18.8858 49.5927 19.088 50.09 19.4487 50.4619C19.8094 50.8337 20.3005 51.0511 20.8184 51.0681V64.2356H3.99609V41.4015H62.0039V64.2356ZM64.0664 37.2138V39.1466C64.0664 39.232 64.0325 39.314 63.972 39.3744C63.9116 39.4348 63.8296 39.4687 63.7441 39.4687H2.25586C2.17039 39.4687 2.08842 39.4348 2.02798 39.3744C1.96755 39.314 1.93359 39.232 1.93359 39.1466V37.2138C1.93359 37.1284 1.96755 37.0464 2.02798 36.986C2.08842 36.9256 2.17039 36.8917 2.25586 36.8917H63.7441C63.8296 36.8917 63.9116 36.9256 63.972 36.986C64.0325 37.0464 64.0664 37.1284 64.0664 37.2138ZM3.99609 34.9589V24.0063H14.0508V34.9589H3.99609ZM15.9844 34.9589V24.0063H26.0391V34.9589H15.9844ZM27.9727 34.9589V24.0063H38.0273V34.9589H27.9727ZM39.9609 34.9589V24.0063H50.0156V34.9589H39.9609ZM51.9492 34.9589V24.0063H62.0039V34.9589H51.9492ZM64.0664 19.8186V21.7514C64.0664 21.8368 64.0325 21.9188 63.972 21.9792C63.9116 22.0396 63.8296 22.0735 63.7441 22.0735H2.25586C2.17039 22.0735 2.08842 22.0396 2.02798 21.9792C1.96755 21.9188 1.93359 21.8368 1.93359 21.7514V19.8186C1.93359 19.7332 1.96755 19.6512 2.02798 19.5908C2.08842 19.5304 2.17039 19.4965 2.25586 19.4965H63.7441C63.8296 19.4965 63.9116 19.5304 63.972 19.5908C64.0325 19.6512 64.0664 19.7332 64.0664 19.8186ZM3.99609 17.5637V6.61113H14.0508V17.5637H3.99609ZM15.9844 17.5637V6.61113H26.0391V17.5637H15.9844ZM27.9727 17.5637V6.61113H38.0273V17.5637H27.9727ZM39.9609 17.5637V6.61113H50.0156V17.5637H39.9609ZM51.9492 17.5637V6.61113H62.0039V17.5637H51.9492ZM63.7441 4.67833H2.25586C2.17039 4.67833 2.08842 4.64439 2.02798 4.58397C1.96755 4.52356 1.93359 4.44163 1.93359 4.35619V2.42339C1.93359 2.33796 1.96755 2.25602 2.02798 2.19561C2.08842 2.1352 2.17039 2.10126 2.25586 2.10126H63.7441C63.8296 2.10126 63.9116 2.1352 63.972 2.19561C64.0325 2.25602 64.0664 2.33796 64.0664 2.42339V4.35619C64.0664 4.44163 64.0325 4.52356 63.972 4.58397C63.9116 4.64439 63.8296 4.67833 63.7441 4.67833ZM7.2252 61.4382H17.5312C17.7877 61.4382 18.0336 61.3364 18.2149 61.1552C18.3962 60.974 18.498 60.7282 18.498 60.4718V54.1284C18.498 53.8721 18.3962 53.6263 18.2149 53.445C18.0336 53.2638 17.7877 53.162 17.5312 53.162H7.2252C6.96878 53.162 6.72288 53.2638 6.54157 53.445C6.36026 53.6263 6.2584 53.8721 6.2584 54.1284V60.4718C6.2584 60.7282 6.36026 60.974 6.54157 61.1552C6.72288 61.3364 6.96878 61.4382 7.2252 61.4382ZM8.19199 55.0948H16.558V59.5054H8.19199V55.0948ZM48.4752 61.4382H58.7812C59.0377 61.4382 59.2836 61.3364 59.4649 61.1552C59.6462 60.974 59.748 60.7282 59.748 60.4718V54.1284C59.748 53.8721 59.6462 53.6263 59.4649 53.445C59.2836 53.2638 59.0377 53.162 58.7812 53.162H48.4816C48.2252 53.162 47.9793 53.2638 47.798 53.445C47.6167 53.6263 47.5148 53.8721 47.5148 54.1284V60.4718C47.5148 60.727 47.6158 60.9719 47.7957 61.1529C47.9756 61.334 48.2199 61.4365 48.4752 61.4382ZM49.442 55.0948H57.808V59.5054H49.442V55.0948Z" fill="white"/>
</svg>
