<svg width="713" height="280" viewBox="0 0 713 280" fill="none" xmlns="http://www.w3.org/2000/svg">
<g filter="url(#filter0_di_572_124)">
<path d="M135.555 196H61.5547V168L109.555 84H149.555L101.555 168H135.555V138H171.555V168H185.555V196H171.555V224H135.555V196ZM357.633 122C357.633 114 353.633 110 345.633 110H323.633C315.633 110 311.633 114 311.633 122V186C311.633 194 315.633 198 323.633 198H345.633C353.633 198 357.633 194 357.633 186V122ZM393.633 186C393.633 200 390.433 210.2 384.033 216.6C377.766 222.867 367.633 226 353.633 226H315.633C301.633 226 291.433 222.867 285.033 216.6C278.766 210.2 275.633 200 275.633 186V122C275.633 108 278.766 97.8667 285.033 91.6C291.433 85.2 301.633 82 315.633 82H353.633C367.633 82 377.766 85.2 384.033 91.6C390.433 97.8667 393.633 108 393.633 122V186ZM559.617 196H485.617V168L533.617 84H573.617L525.617 168H559.617V138H595.617V168H609.617V196H595.617V224H559.617V196Z" fill="black"/>
</g>
<path d="M362 172L333 193L333 260L405 206.001L405 147L390 157.5" stroke="url(#paint0_linear_572_124)" stroke-width="12"/>
<path d="M8.55459 91.3988C-11.4454 39.3988 92.5564 108.405 92.5564 108.405L8.55459 91.3988ZM8.55459 91.3988C28.5546 143.399 127.555 206.904 136.555 206.404" stroke="url(#paint1_linear_572_124)" stroke-width="12"/>
<path d="M217.866 218.727C218.955 222.576 220.045 226.424 221.134 230.273C231.192 226.182 233.825 219.254 237.515 213.354C247.578 194.168 253.083 174.311 258.216 154.24C260.691 144.161 262.841 134.162 264.491 123.804C265.282 118.636 266.006 113.594 266.151 108.038C266.163 107.319 266.158 106.64 266.134 105.998C266.104 105.172 266.041 104.388 265.929 103.659C265.887 103.376 265.77 102.721 265.625 102.236C265.55 101.978 265.463 101.719 265.355 101.455C265.227 101.164 265.183 101.02 264.852 100.486C264.345 99.6102 262.962 98.4732 261.441 98.4438C260.003 98.3433 258.734 99.1591 258.408 99.4101C255.092 102.391 254.665 104.256 253.124 106.988C250.659 111.899 248.184 116.974 246.201 122.208C245.225 124.972 244.19 127.501 244.032 131.226C244.031 131.462 244.036 131.676 244.051 131.929C244.068 132.206 244.097 132.481 244.14 132.756C244.222 133.275 244.381 133.921 244.68 134.559C245.217 135.871 246.772 137.167 248.075 137.492C250.708 138.159 252.278 137.574 253.846 137.196C265.176 133.185 273.909 127.236 283.682 122.294C283.772 122.247 283.862 122.199 283.952 122.152C284.706 121.755 285.319 121.49 285.746 121.347C285.831 121.318 286.002 121.265 286.109 121.24C286.221 121.212 286.297 121.201 286.331 121.198C286.389 121.172 286.344 121.28 285.797 121.044C285.554 120.928 285.294 120.703 285.146 120.491C285.014 120.308 284.955 120.15 284.931 120.07C284.892 119.895 284.931 120.082 284.913 120.245C284.902 120.43 284.866 120.709 284.795 121.052C284.722 121.4 284.664 121.629 284.571 121.964C283.774 124.711 282.496 127.555 281.172 130.47C278.535 136.185 275.631 141.957 272.847 147.749C267.298 159.3 261.863 171.142 258.047 183.744C254.582 196.09 251.069 210.691 258.736 224.231C267.196 237.794 283.393 240.13 296.5 240.567C300.446 240.673 304.392 240.783 308.337 240.897C314.892 241.087 321.446 241.288 328 241.5C328 237.5 328 233.5 328 229.5C321.446 229.712 314.892 229.913 308.337 230.103C304.392 230.217 300.446 230.327 296.5 230.433C284.416 230.783 271.611 228.719 265.787 219.798C259.893 210.849 261.656 197.419 264.814 185.678C268.095 173.661 273.164 161.933 278.506 150.43C281.19 144.645 284.022 138.876 286.694 132.981C288.047 129.928 289.348 127.095 290.37 123.57C290.492 123.119 290.574 122.804 290.688 122.249C290.8 121.693 290.88 121.152 290.912 120.603C290.906 119.809 291.231 117.216 288.48 115.672C287.907 115.373 287.145 115.23 286.779 115.21C286.401 115.18 286.041 115.192 285.694 115.229C285.347 115.266 285.012 115.329 284.68 115.41C284.353 115.489 283.99 115.605 283.823 115.662C282.98 115.948 282.113 116.341 281.159 116.841C281.068 116.889 280.977 116.937 280.886 116.985C271.214 121.924 261.525 128.107 252.19 131.275C251.119 131.601 249.911 131.651 249.895 131.578C249.896 131.574 250.007 131.614 250.114 131.705C250.222 131.792 250.302 131.919 250.311 131.942C250.333 132.014 250.247 131.684 250.264 131.297C250.327 129.455 251.185 126.874 252.118 124.469C253.994 119.71 256.486 114.765 258.985 110.013C259.65 108.752 260.192 107.807 260.778 106.89C261.132 106.335 261.449 105.888 261.711 105.559C261.779 105.474 261.832 105.41 261.902 105.327C261.991 105.222 262.07 105.135 262.136 105.068C262.267 104.933 262.348 104.877 262.326 104.897C262.36 104.861 262.009 105.221 261.078 105.196C260.639 105.182 260.11 105.002 259.768 104.764C259.417 104.528 259.236 104.287 259.148 104.154C258.933 103.749 259.15 104.224 259.176 104.63C259.225 105.015 259.262 105.556 259.272 106.188C259.279 106.68 259.271 107.237 259.247 107.85C259.02 112.674 258.211 117.627 257.311 122.578C255.447 132.575 253.028 142.345 250.258 152.129C244.609 171.519 238.046 191.136 228.079 207.86C225.078 212.889 220.327 218.396 217.866 218.727Z" fill="url(#paint2_linear_572_124)"/>
<path d="M582.566 223.995C577.9 223.995 573.233 223.995 568.566 223.995C568.626 223.368 568.752 223.538 568.54 223.973C568.378 224.362 567.946 225.046 567.49 225.635C566.461 226.962 565.121 228.293 563.624 229.593C560.604 232.205 557.089 234.597 553.411 236.773C526.881 252.494 481.099 262.238 469.307 228.673C462.32 209.747 468.143 187.932 476.187 168.645C480.284 158.813 485.181 149.397 490.031 139.673C491.239 137.219 492.442 134.739 493.516 132.172C493.801 131.487 494.062 130.828 494.296 130.191C494.547 129.509 494.811 128.723 495.006 128.031C495.341 126.481 496.079 124.971 495.136 122.103C494.561 120.51 492.784 119.317 491.412 119.119C490.367 118.893 489.009 119.024 488.38 119.136C487.629 119.253 486.614 119.519 486.001 119.712C485.34 119.916 484.645 120.159 483.907 120.444C482.498 120.992 481.401 121.479 479.969 122.152C478.77 122.72 477.605 123.302 476.291 123.985C476.064 124.103 475.834 124.223 475.601 124.346C465.742 129.597 452.858 133.492 445.113 126.996C437.055 121.25 440.429 103.344 449.976 110.435C455.566 114.166 456.003 125.86 455.629 134.837C455.158 144.381 453.545 153.955 451.341 163.353C449.105 172.74 446.281 181.998 442.511 190.786C440.625 195.116 438.473 199.436 435.902 202.797C434.692 204.461 432.911 205.822 432.683 205.72C432.66 205.711 432.827 205.688 432.939 205.715C433.06 205.74 433.065 205.763 432.967 205.67C432.726 205.45 432.313 204.915 431.865 204.004C429.168 197.58 421.034 193.225 414.6 193.441C408.111 193.296 402.448 194.747 396.961 196.082C386.166 198.803 375.586 202.123 366.297 201.071C358.709 200.279 353.306 195.812 349.796 188.68C346.265 190.56 342.735 192.44 339.204 194.32C343.81 203.514 354.437 211.59 365.259 211.926C378.203 212.708 389.068 208.351 399.485 205.469C409.734 202.494 420.644 200.144 424.135 207.995C425.005 209.569 425.726 210.786 427.483 212.291C428.969 213.654 432.157 214.705 434.581 214C439.245 212.56 440.714 210.01 442.536 207.781C445.788 203.248 447.882 198.568 449.826 193.845C453.63 184.349 456.316 174.74 458.449 164.958C460.54 155.167 462.048 145.25 462.398 135.101C462.064 125.359 464.088 113.489 453.139 104.881C450.206 103.227 446.067 101.766 441.868 103.315C437.621 104.91 435.436 108.901 434.665 112.401C433.147 119.498 435.665 127.001 441.175 131.654C453.329 140.957 467.901 134.972 478.398 129.654C478.622 129.536 478.842 129.421 479.059 129.308C480.315 128.655 481.419 128.105 482.532 127.579C483.858 126.957 484.858 126.517 486.065 126.05C486.694 125.809 487.261 125.613 487.763 125.46C487.985 125.392 488.319 125.297 488.597 125.229C488.877 125.161 489.127 125.11 489.342 125.076C489.449 125.059 489.548 125.046 489.638 125.036C489.744 125.024 489.865 125.016 489.951 125.014C490.128 125.008 490.226 125.024 490.238 125.027C490.263 125.034 490.117 125.006 489.94 124.871C489.763 124.747 489.598 124.506 489.558 124.393C489.488 124.16 489.577 124.486 489.513 124.89C489.491 125.08 489.452 125.312 489.394 125.577C489.365 125.709 489.331 125.85 489.292 125.999C489.259 126.126 489.227 126.244 489.189 126.374C489.045 126.877 488.831 127.51 488.615 128.088C488.414 128.626 488.181 129.206 487.92 129.823C486.934 132.145 485.753 134.548 484.551 136.942C479.703 146.485 474.587 156.046 470.219 166.094C461.75 185.84 454.417 208.713 461.804 231.327C466.997 250.285 488.161 261.725 506.531 261.107C525.229 261.229 542.981 255.939 559.41 247.644C563.698 245.41 567.871 242.939 571.93 239.835C573.961 238.26 575.896 236.628 577.901 234.365C579.712 232.046 582.15 229.837 582.566 223.995Z" fill="url(#paint3_linear_572_124)"/>
<path d="M570.054 138C574.72 138 579.387 138 584.054 138C583.375 136.323 586.668 129.975 589.906 125.456C606.497 102.046 629.927 80.7445 639.167 50.8149C639.266 50.4649 639.361 50.1144 639.454 49.7635C639.857 48.2728 640.265 47.332 640.856 46.578C641.106 46.2712 641.354 46.0831 641.559 45.9936C641.769 45.9036 641.98 45.8557 642.371 45.8822C643.982 45.9828 646.58 47.7003 648.717 49.6212C653.102 53.5681 656.889 58.4064 660.493 63.3547C667.697 73.3779 674.037 84.1507 679.914 95.0832C685.775 106.045 691.199 117.323 695.892 128.748C698.247 134.516 700.417 140.295 702.138 146.108C702.994 149.043 703.721 151.875 704.13 154.744C704.308 156.005 704.406 157.53 704.283 158.4C704.236 158.883 704.063 159.149 704.197 158.885C704.275 158.751 704.488 158.498 704.808 158.32C705.119 158.14 705.446 158.093 705.55 158.092C675.103 157.686 644.459 157.158 613.971 156.506C607.805 156.375 601.606 156.239 595.55 156.098C595.55 160.098 595.55 164.098 595.55 168.098C601.606 167.957 607.805 167.821 613.971 167.69C644.459 167.039 675.103 166.511 705.55 166.105C707.557 166.193 709.932 164.851 710.863 163.218C711.938 161.378 711.952 160.516 712.13 159.223C712.319 157.129 712.066 155.169 711.812 153.577C711.216 150.04 710.338 147.028 709.349 143.893C707.368 137.734 705.003 131.848 702.47 125.977C697.427 114.369 691.737 103.032 685.632 91.9705C679.505 80.9363 672.974 70.0701 665.449 59.7458C661.655 54.6271 657.764 49.6308 652.71 45.0968C650.069 42.9233 647.497 40.4921 642.824 39.8896C640.439 39.5599 637.414 41.0733 636.204 42.7851C634.682 44.7676 634.231 46.204 633.651 48.2365C633.568 48.5536 633.481 48.8708 633.392 49.1879C624.887 76.8158 601.319 96.2154 580.894 118.336C576.86 123.491 571.562 127.233 570.054 138Z" fill="url(#paint4_linear_572_124)"/>
<rect x="358" y="142" width="35" height="47" fill="black"/>
<path d="M686.555 5L650.555 110" stroke="url(#paint5_linear_572_124)" stroke-width="30"/>
<path d="M646.791 125.068L638.791 138.925" stroke="url(#paint6_linear_572_124)" stroke-width="30"/>
<path d="M172 202.585C172 206.585 172 210.585 172 214.585C175.917 214.398 177.778 212.605 179.189 211.42C179.842 210.822 180.469 210.153 181.021 209.502C181.505 208.928 181.972 208.324 182.429 207.692C184.172 205.258 185.478 202.913 186.758 200.447C193.798 186.246 198.363 171.792 202.671 157.154C204.754 149.866 206.719 142.399 208.22 134.924C208.88 130.846 209.954 128.043 209.42 122.204C209.398 122.101 209.374 121.995 209.346 121.887C209.313 121.762 209.305 121.727 209.229 121.488C209.098 121.097 208.916 120.66 208.577 120.177C208.235 119.697 207.739 119.175 206.948 118.795C206.113 118.386 205.113 118.326 204.39 118.479C202.763 118.91 202.694 119.227 202.243 119.52C201.868 119.824 201.559 120.136 201.262 120.47C200.548 121.27 199.734 122.506 199.321 123.189C198.185 125.054 197.429 126.52 196.43 128.495C193.908 133.581 191.435 138.822 189.587 144.358C188.695 147.197 187.797 150.034 187.842 153.698C187.909 155.436 188.289 157.863 190.285 159.728C192.3 161.542 194.637 161.744 196.382 161.726C209.494 159.946 218.445 153.575 228.623 148.641C228.88 148.506 229.138 148.37 229.396 148.235C230.523 147.641 231.298 147.368 231.671 147.326C231.681 147.326 231.663 147.328 231.615 147.325C231.574 147.321 231.482 147.318 231.298 147.257C230.944 147.165 230.428 146.718 230.287 146.406C230.14 146.132 230.142 145.984 230.141 146.008C230.144 146.041 230.139 146.174 230.121 146.314C229.882 147.891 228.962 150.029 227.966 152.148C225.993 156.272 223.665 160.353 221.259 164.498C216.5 172.646 211.439 180.811 206.573 189.074C201.717 197.423 196.864 205.595 193.071 215.083C192.173 217.44 191.328 219.85 190.819 222.82C190.599 224.084 190.433 225.96 190.639 227.618C190.879 229.549 191.582 231.828 193.596 233.697C197.778 237.171 201.81 236.314 204.508 236.022C207.464 235.529 209.785 234.799 212.4 233.861C215.025 232.903 217.267 231.961 219.896 230.749C222.096 229.75 224.453 228.599 226.98 227.287C224.994 223.815 223.007 220.343 221.02 216.872C218.752 218.303 216.665 219.564 214.753 220.661C212.454 221.952 210.534 222.972 208.391 223.955C198.212 227.524 198.679 228.998 201.225 217.97C204.043 209.399 208.403 200.964 212.841 192.596C217.305 184.249 222.1 175.956 226.74 167.616C229.094 163.359 231.391 159.197 233.474 154.724C234.539 152.287 235.548 150.396 236.099 147.045C236.162 146.467 236.335 144.932 235.57 143.534C235.16 142.715 234.184 141.856 233.226 141.565C232.986 141.484 232.749 141.427 232.518 141.388C232.343 141.359 232.209 141.344 232.059 141.333C231.766 141.312 231.484 141.316 231.212 141.337C230.667 141.38 230.156 141.488 229.646 141.635C229.228 141.759 228.978 141.849 228.639 141.98C227.992 142.233 227.322 142.546 226.604 142.924C226.347 143.059 226.091 143.194 225.835 143.328C216.123 148.215 205.541 154.489 196.294 155.5C195.26 155.52 194.628 155.24 194.565 155.122C194.468 155.057 194.198 154.514 194.195 153.522C194.176 151.497 194.893 148.902 195.752 146.452C197.498 141.544 199.992 136.513 202.57 131.663C203.548 129.832 204.313 128.478 205.29 126.973C205.399 126.808 205.503 126.654 205.602 126.51C205.696 126.376 205.863 126.137 205.978 125.983C206.225 125.65 206.421 125.418 206.572 125.26C206.679 125.146 206.742 125.101 206.708 125.133C206.691 125.15 206.648 125.185 206.565 125.237C206.54 125.254 206.23 125.451 205.748 125.544C205.267 125.65 204.485 125.615 203.842 125.297C203.233 125.005 202.879 124.615 202.67 124.323C202.462 124.027 202.393 123.828 202.355 123.725C202.324 123.633 202.326 123.631 202.321 123.622C202.448 125.535 201.585 129.885 200.772 133.308C199.088 140.354 196.872 147.605 194.517 154.614C189.717 168.634 184.269 182.831 177.136 195.13C175.892 197.213 174.623 199.126 173.308 200.713C172.969 201.121 172.648 201.477 172.356 201.773C172.026 202.112 171.706 202.398 171.47 202.574C171.253 202.741 170.998 202.88 171.016 202.839C170.989 202.83 171.332 202.609 172 202.585Z" fill="url(#paint7_linear_572_124)"/>
<defs>
<filter id="filter0_di_572_124" x="41.5547" y="66" width="588.062" height="184" filterUnits="userSpaceOnUse" color-interpolation-filters="sRGB">
<feFlood flood-opacity="0" result="BackgroundImageFix"/>
<feColorMatrix in="SourceAlpha" type="matrix" values="0 0 0 0 0 0 0 0 0 0 0 0 0 0 0 0 0 0 127 0" result="hardAlpha"/>
<feOffset dy="4"/>
<feGaussianBlur stdDeviation="10"/>
<feComposite in2="hardAlpha" operator="out"/>
<feColorMatrix type="matrix" values="0 0 0 0 0 0 0 0 0 0 0 0 0 0 0 0 0 0 0.25 0"/>
<feBlend mode="normal" in2="BackgroundImageFix" result="effect1_dropShadow_572_124"/>
<feBlend mode="normal" in="SourceGraphic" in2="effect1_dropShadow_572_124" result="shape"/>
<feColorMatrix in="SourceAlpha" type="matrix" values="0 0 0 0 0 0 0 0 0 0 0 0 0 0 0 0 0 0 127 0" result="hardAlpha"/>
<feOffset dy="4"/>
<feGaussianBlur stdDeviation="2"/>
<feComposite in2="hardAlpha" operator="arithmetic" k2="-1" k3="1"/>
<feColorMatrix type="matrix" values="0 0 0 0 0 0 0 0 0 0 0 0 0 0 0 0 0 0 0.25 0"/>
<feBlend mode="normal" in2="shape" result="effect2_innerShadow_572_124"/>
</filter>
<linearGradient id="paint0_linear_572_124" x1="402" y1="203" x2="323" y2="234" gradientUnits="userSpaceOnUse">
<stop stop-color="#AA00FF"/>
<stop offset="0.509615" stop-color="#FF0000"/>
<stop offset="1" stop-color="#FF0085"/>
</linearGradient>
<linearGradient id="paint1_linear_572_124" x1="60.8251" y1="98.9491" x2="246.893" y2="118.295" gradientUnits="userSpaceOnUse">
<stop stop-color="#FF0000"/>
<stop offset="0.5" stop-color="#FFF200"/>
<stop offset="1" stop-color="#FF0080"/>
</linearGradient>
<linearGradient id="paint2_linear_572_124" x1="221.555" y1="111" x2="306.874" y2="72.2793" gradientUnits="userSpaceOnUse">
<stop stop-color="#FF0080"/>
<stop offset="1" stop-color="#FF00A6"/>
</linearGradient>
<linearGradient id="paint3_linear_572_124" x1="327.555" y1="91" x2="534.156" y2="22.3537" gradientUnits="userSpaceOnUse">
<stop stop-color="#FF0187"/>
<stop offset="0.225962" stop-color="#D500FF"/>
<stop offset="0.668269" stop-color="#2B00FF"/>
</linearGradient>
<linearGradient id="paint4_linear_572_124" x1="515.555" y1="102" x2="689.555" y2="73" gradientUnits="userSpaceOnUse">
<stop stop-color="#7D04FF"/>
<stop offset="0.615385" stop-color="#FF00EE"/>
<stop offset="1" stop-color="#FF070B"/>
</linearGradient>
<linearGradient id="paint5_linear_572_124" x1="668.403" y1="3.52352" x2="775.118" y2="16.356" gradientUnits="userSpaceOnUse">
<stop stop-color="#FF0000"/>
<stop offset="0.5" stop-color="#FFF200"/>
<stop offset="1" stop-color="#FF0080"/>
</linearGradient>
<linearGradient id="paint6_linear_572_124" x1="647.333" y1="125.121" x2="647.453" y2="125.194" gradientUnits="userSpaceOnUse">
<stop stop-color="#FF0000"/>
<stop offset="0.5" stop-color="#FFF200"/>
<stop offset="1" stop-color="#FF0080"/>
</linearGradient>
<linearGradient id="paint7_linear_572_124" x1="62.2704" y1="101.13" x2="248.338" y2="120.476" gradientUnits="userSpaceOnUse">
<stop stop-color="#FF0000"/>
<stop offset="0.5" stop-color="#FFF200"/>
<stop offset="1" stop-color="#FF0080"/>
</linearGradient>
</defs>
</svg>
